HIERARCHY
ROOT Hips
{
    OFFSET 0.000000 0.000000 0.000000
    CHANNELS 6 Xposition Yposition Zposition Zrotation Xrotation Yrotation
    JOINT Spine
    {
        OFFSET -0.000000 7.856138 0.000000
        CHANNELS 3 Zrotation Xrotation Yrotation
        JOINT Spine1
        {
            OFFSET -0.000000 20.830866 0.000000
            CHANNELS 3 Zrotation Xrotation Yrotation
            JOINT Neck
            {
                OFFSET -0.000000 20.745317 1.885938
                CHANNELS 3 Zrotation Xrotation Yrotation
                JOINT Head
                {
                    OFFSET -0.000000 13.412918 -1.916131
                    CHANNELS 3 Zrotation Xrotation Yrotation
                    End Site
                    {
                        OFFSET -0.000000 23.951641 0.000000
                    }
                }
            }
            JOINT LeftShoulder
            {
                OFFSET 3.826675 19.078362 -0.073511
                CHANNELS 3 Zrotation Xrotation Yrotation
                JOINT LeftArm
                {
                    OFFSET 10.442133 0.000000 0.000000
                    CHANNELS 3 Zrotation Xrotation Yrotation
                    JOINT LeftForeArm
                    {
                        OFFSET 37.051945 0.000000 0.000000
                        CHANNELS 3 Zrotation Xrotation Yrotation
                        JOINT LeftHand
                        {
                            OFFSET 24.394852 0.000000 0.000000
                            CHANNELS 3 Zrotation Xrotation Yrotation
                            End Site
                            {
                                OFFSET 14.370985 0.000000 0.000000
                            }
                        }
                    }
                }
            }
            JOINT RightShoulder
            {
                OFFSET -3.827599 19.078362 -0.073511
                CHANNELS 3 Zrotation Xrotation Yrotation
                JOINT RightArm
                {
                    OFFSET -10.442133 0.000000 0.000000
                    CHANNELS 3 Zrotation Xrotation Yrotation
                    JOINT RightForeArm
                    {
                        OFFSET -37.051945 0.000000 0.000000
                        CHANNELS 3 Zrotation Xrotation Yrotation
                        JOINT RightHand
                        {
                            OFFSET -24.394852 0.000000 0.000000
                            CHANNELS 3 Zrotation Xrotation Yrotation
                            End Site
                            {
                                OFFSET -14.370985 0.000000 0.000000
                            }
                        }
                    }
                }
            }
        }
    }
    JOINT LeftUpLeg
    {
        OFFSET 9.580656 0.000000 0.000000
        CHANNELS 3 Zrotation Xrotation Yrotation
        JOINT LeftLeg
        {
            OFFSET -0.000000 -43.769192 0.000000
            CHANNELS 3 Zrotation Xrotation Yrotation
            JOINT LeftFoot
            {
                OFFSET -0.000000 -42.531967 0.000000
                CHANNELS 3 Zrotation Xrotation Yrotation
                JOINT LeftToeBase
                {
                    OFFSET -0.000000 -6.227426 14.370985
                    CHANNELS 3 Zrotation Xrotation Yrotation
                    End Site
                    {
                        OFFSET -0.000000 0.000000 3.832262
                    }
                }
            }
        }
    }
    JOINT RightUpLeg
    {
        OFFSET -9.580656 0.000000 0.000000
        CHANNELS 3 Zrotation Xrotation Yrotation
        JOINT RightLeg
        {
            OFFSET -0.000000 -43.769192 0.000000
            CHANNELS 3 Zrotation Xrotation Yrotation
            JOINT RightFoot
            {
                OFFSET -0.000000 -42.531967 0.000000
                CHANNELS 3 Zrotation Xrotation Yrotation
                JOINT RightToeBase
                {
                    OFFSET -0.000000 -6.227426 14.370985
                    CHANNELS 3 Zrotation Xrotation Yrotation
                    End Site
                    {
                        OFFSET -0.000000 0.000000 3.832262
                    }
                }
            }
        }
    }
}
MOTION
Frames:    4
Frame Time:    0.008333
66.260277    83.569977    27.412802    3.452899    -5.274878    102.312027    -1.778511    -12.427302    -1.601379    7.529837    14.278461    -2.352224    11.731969    6.526670    13.211106    0.469265    -11.959911    12.791530    -6.230327    15.816202    1.715174    -38.516033    62.981583    -29.552992    -4.801051    -15.907721    -19.222010    1.394506    -16.430223    21.890169    5.576829    13.971684    1.481750    34.736710    59.740139    30.840115    -6.640349    -11.941559    20.307951    0.551731    -10.822476    -10.326183    23.083405    21.862774    -3.116226    -6.818549    30.493694    -1.132655    -16.752184    -13.417726    9.173737    0.000000    0.000000    0.000000    -4.006571    -30.290361    -2.429518    15.564048    42.428951    -20.366364    -6.653515    -12.871986    -16.130684    0.000000    0.000000    0.000000    
67.262115    83.740585    27.710003    3.533591    -5.456270    102.154449    -1.621959    -12.023246    -1.782510    7.698331    13.817083    -2.545874    11.890661    6.390914    13.641269    0.049992    -11.689662    13.108606    -5.941409    15.622894    1.811103    -38.075825    63.984337    -30.190178    -5.036961    -19.168760    -19.253538    0.359072    -19.903769    23.662615    5.607158    13.915143    1.431377    35.753471    58.232212    29.911089    -5.834177    -10.395306    20.466415    -2.059676    -9.164509    -10.765701    23.656683    20.998259    -3.679006    -7.600760    32.604603    -0.598701    -16.268517    -11.765944    10.168471    0.000000    0.000000    0.000000    -3.002062    -29.795431    -2.034463    14.872530    42.775444    -19.346022    -6.769415    -13.356992    -16.784384    0.000000    0.000000    0.000000    
68.268684    84.019142    27.790047    3.406732    -5.175448    101.522682    -1.583860    -12.144689    -1.701474    7.702421    13.878231    -2.471877    11.918487    6.226594    13.999504    -0.602319    -11.564821    13.305944    -5.988115    15.704827    2.169103    -36.675636    64.282585    -31.691082    -5.373590    -22.215158    -19.006088    -0.877306    -23.221136    24.466591    5.389637    13.821775    1.351776    36.528290    57.170761    29.304871    -5.488043    -9.451950    20.392271    -3.937131    -8.110568    -10.698630    23.100393    20.253862    -4.172656    -8.438701    34.546032    0.832449    -14.089633    -9.261051    11.681329    0.000000    0.000000    0.000000    -2.568465    -29.366474    -1.358437    14.515600    43.048096    -18.268559    -6.721834    -13.690519    -17.638426    0.000000    0.000000    0.000000    
69.237984    84.253700    27.938631    3.382180    -5.169469    101.125435    -1.263245    -11.844329    -1.685575    7.584053    13.379014    -2.445381    12.003744    6.401562    14.327568    -1.058634    -11.691598    13.548820    -5.850932    15.727479    2.227170    -36.428768    64.428406    -31.988544    -5.433239    -24.281580    -19.049353    -1.867521    -25.483437    24.899734    5.334221    13.871745    1.486422    37.441463    56.488609    28.409544    -5.706723    -9.110258    20.200253    -5.491005    -7.585185    -10.881107    23.077475    19.339561    -4.783601    -9.514772    36.684086    1.905085    -13.616044    -7.451131    13.218520    0.000000    0.000000    0.000000    -1.884582    -28.779551    -0.781940    14.095613    43.078037    -17.532696    -6.729302    -14.097612    -18.225611    0.000000    0.000000    0.000000    
